<?xml version="1.0" encoding="UTF-8"?>
<svg version="1.1" xmlns="http://www.w3.org/2000/svg" width="180" height="180">
<path d="M0 0 C1.5159375 0.00580078 1.5159375 0.00580078 3.0625 0.01171875 C6.05225499 0.31785058 8.28352213 1.0591251 11 2.3125 C11.33 1.9825 11.66 1.6525 12 1.3125 C17.40227629 0.95234825 20.52118671 0.95339003 25 4.3125 C24.835 5.09625 24.67 5.88 24.5 6.6875 C23.9376293 9.19458039 23.9376293 9.19458039 24 11.3125 C24.44988281 11.7559375 24.89976563 12.199375 25.36328125 12.65625 C29.77666881 17.12230329 31.27067714 23.83921069 31.5 29.9375 C31.2565842 36.54717532 28.57968931 40.94296604 25 46.3125 C25.9178125 46.34988281 26.835625 46.38726562 27.78125 46.42578125 C43.98113208 47.29363208 43.98113208 47.29363208 49 52.3125 C49.74621237 59.66580104 46.29533673 64.72952318 42 70.3125 C41.41347656 71.11300781 40.82695313 71.91351563 40.22265625 72.73828125 C34.22741402 80.75380204 34.22741402 80.75380204 30 83.3125 C27.1875 83.5625 27.1875 83.5625 25 83.3125 C24.60740448 78.86308414 25.6501558 76.08903532 28 72.3125 C28.6290625 72.06113281 29.258125 71.80976562 29.90625 71.55078125 C33.09635446 69.66409634 33.80588631 67.03521809 35.25 63.6875 C36.61125 60.531875 36.61125 60.531875 38 57.3125 C32.39 57.3125 26.78 57.3125 21 57.3125 C21.11377521 61.39643107 21.24053489 65.47924274 21.375 69.5625 C21.4059375 70.72136719 21.436875 71.88023438 21.46875 73.07421875 C21.50742188 74.18925781 21.54609375 75.30429688 21.5859375 76.453125 C21.6173584 77.47954102 21.6487793 78.50595703 21.68115234 79.56347656 C22.00003151 82.31277167 22.50284815 84.00192447 24 86.3125 C31.81080653 90.21790327 42.39067729 85.52547599 50.07226562 82.99267578 C53.23726677 81.87594666 56.24528241 80.47714387 59.2734375 79.0390625 C61.66639144 78.03207283 63.45565742 77.78866476 66 78.3125 C66.40089844 78.80234375 66.80179688 79.2921875 67.21484375 79.796875 C69.89285076 82.07054397 72.21883638 81.83412342 75.6875 82 C76.34016846 82.03270996 76.99283691 82.06541992 77.6652832 82.09912109 C91.13745219 83.41899243 91.13745219 83.41899243 104 81.3125 C104.33 80.3225 104.66 79.3325 105 78.3125 C106.65 78.3125 108.3 78.3125 110 78.3125 C110.28934017 83.23128297 110.27699736 86.47050309 107 90.3125 C104.3125 91.125 104.3125 91.125 102 91.3125 C102.66 91.745625 103.32 92.17875 104 92.625 C104.66 93.181875 105.32 93.73875 106 94.3125 C106 95.3025 106 96.2925 106 97.3125 C101.49586107 97.01630946 97.76256435 96.66553905 93.625 94.75 C88.62326365 92.76655283 84.31200959 93.03511047 79 93.3125 C77.90945312 93.3434375 76.81890625 93.374375 75.6953125 93.40625 C74.62023437 93.4578125 73.54515625 93.509375 72.4375 93.5625 C71.44621094 93.60890625 70.45492187 93.6553125 69.43359375 93.703125 C66.85625495 94.04839228 66.85625495 94.04839228 65.8125 96.2265625 C65.544375 96.91492188 65.27625 97.60328125 65 98.3125 C62.43902144 100.54514798 59.82734984 102.42760011 57 104.3125 C56.37952326 107.65179298 56.77718294 108.98086531 58.6796875 111.8125 C59.76636719 113.05 59.76636719 113.05 60.875 114.3125 C63.68265983 117.53275501 65.74463802 120.19545266 67 124.3125 C66.68959439 128.1925701 66.1803075 130.04203875 64 133.3125 C62.0546875 133.60546875 62.0546875 133.60546875 59.875 133.5 C58.59625 133.438125 57.3175 133.37625 56 133.3125 C56 132.6525 56 131.9925 56 131.3125 C49.71694717 130.80836278 49.71694717 130.80836278 44 133.125 C41.80058068 135.23282952 41.80058068 135.23282952 41 138.3125 C41.71230868 140.12496293 41.71230868 140.12496293 42.875 141.875 C43.24367188 142.47441406 43.61234375 143.07382813 43.9921875 143.69140625 C44.32476562 144.22636719 44.65734375 144.76132813 45 145.3125 C46.74133689 148.79517379 45.86930681 152.61136039 45 156.3125 C43.09936318 158.76493461 41.74145145 159.94177427 39 161.3125 C32.84243355 161.82563054 29.90783395 161.38495796 25 157.3125 C23.13085653 155.51025219 21.30471858 153.68255311 19.515625 151.80078125 C18.05074174 150.20971278 18.05074174 150.20971278 16 149.3125 C15.98018066 150.18052246 15.96036133 151.04854492 15.93994141 151.94287109 C15.86190128 155.15976267 15.77521119 158.37627045 15.68261719 161.59277344 C15.64430673 162.98558572 15.60945741 164.37849765 15.578125 165.77148438 C15.53252093 167.77236308 15.47348377 169.77292146 15.4140625 171.7734375 C15.36693115 173.58013916 15.36693115 173.58013916 15.31884766 175.42333984 C15 178.3125 15 178.3125 13 180.3125 C9.875 180.4375 9.875 180.4375 7 180.3125 C5.2302229 176.50043688 4.76172058 173.54474378 4.8046875 169.35546875 C4.81113281 168.24365234 4.81757812 167.13183594 4.82421875 165.98632812 C4.84935547 164.2605957 4.84935547 164.2605957 4.875 162.5 C4.88402344 161.33017578 4.89304687 160.16035156 4.90234375 158.95507812 C4.92586268 156.07400947 4.95873148 153.19336011 5 150.3125 C4.52820313 151.12654297 4.52820313 151.12654297 4.046875 151.95703125 C-0.45039457 159.47505719 -0.45039457 159.47505719 -4 161.3125 C-8.83082319 162.26909865 -12.85349256 161.88575372 -17.25 159.6875 C-20.71739142 156.31861401 -22.285914 151.56093202 -23.99707031 147.12646484 C-25.17304065 143.54095078 -25.17304065 143.54095078 -28 141.3125 C-29.68490405 142.07235869 -31.36908839 142.83392741 -33.046875 143.609375 C-36.03657458 144.68566685 -38.86634055 144.5043567 -42 144.3125 C-42.83409129 141.42132466 -43.17367744 139.79705212 -42.14453125 136.92578125 C-41.70496094 136.16652344 -41.26539062 135.40726563 -40.8125 134.625 C-40.17248047 133.47451172 -40.17248047 133.47451172 -39.51953125 132.30078125 C-37.85578222 130.12379345 -36.51752215 129.32058703 -34 128.3125 C-34 127.6525 -34 126.9925 -34 126.3125 C-32.5390625 125.0234375 -32.5390625 125.0234375 -30.625 123.6875 C-29.99851563 123.24148437 -29.37203125 122.79546875 -28.7265625 122.3359375 C-27 121.3125 -27 121.3125 -25 121.3125 C-25 120.6525 -25 119.9925 -25 119.3125 C-22.625 116.6875 -22.625 116.6875 -20 114.3125 C-19.34 114.3125 -18.68 114.3125 -18 114.3125 C-17.690625 113.52875 -17.38125 112.745 -17.0625 111.9375 C-16 109.3125 -16 109.3125 -15 107.3125 C-14.34 107.3125 -13.68 107.3125 -13 107.3125 C-12.87625 106.73628906 -12.7525 106.16007812 -12.625 105.56640625 C-11.98515197 103.2589543 -11.10972091 101.36744542 -10 99.25 C-7.36598741 94.20470382 -6.73802495 89.76600109 -6.4375 84.125 C-6.37272461 83.00061523 -6.37272461 83.00061523 -6.30664062 81.85351562 C-6.20077315 80.00671625 -6.0999024 78.15963166 -6 76.3125 C-6.92683594 76.18875 -7.85367188 76.065 -8.80859375 75.9375 C-13.89104749 74.94216022 -16.67010391 72.27069345 -19.48828125 68.12109375 C-21.81007672 64.15115051 -23 62.02061468 -23 57.3125 C-23.99 57.6425 -24.98 57.9725 -26 58.3125 C-35.12306356 58.97599553 -43.65806656 56.37537636 -52.0625 52.99609375 C-54.25031365 52.22418369 -56.41303897 51.76514767 -58.6875 51.3125 C-62.29960786 50.57139511 -64.9428801 49.44321993 -68 47.3125 C-68.66 46.9825 -69.32 46.6525 -70 46.3125 C-70 45.3225 -70 44.3325 -70 43.3125 C-61.00420365 43.00755775 -52.4802315 44.43607448 -43.66796875 46.1484375 C-42.92482422 46.28918701 -42.18167969 46.42993652 -41.41601562 46.57495117 C-39.97115769 46.85053155 -38.52823266 47.13652967 -37.08789062 47.43481445 C-32.10767836 48.38317149 -28.00415356 48.14745955 -23 47.3125 C-23.31710938 46.78914063 -23.63421875 46.26578125 -23.9609375 45.7265625 C-26.19922717 40.5263256 -25.90639256 34.81048643 -25 29.3125 C-23.21947765 26.42319782 -21.22307112 24.16713222 -18.90625 21.6953125 C-16.31516033 18.45645042 -15.81340301 15.59006358 -15.3515625 11.5390625 C-14.97212058 9.13593034 -14.18524674 7.42281737 -13 5.3125 C-12.34 5.3125 -11.68 5.3125 -11 5.3125 C-11 4.6525 -11 3.9925 -11 3.3125 C-7.30475797 0.5206903 -4.58067119 -0.07595501 0 0 Z " fill="#DC2E43" transform="translate(70,-0.3125)"/>
<path d="M0 0 C1.5159375 0.00580078 1.5159375 0.00580078 3.0625 0.01171875 C6.05225499 0.31785058 8.28352213 1.0591251 11 2.3125 C11.33 1.9825 11.66 1.6525 12 1.3125 C17.40227629 0.95234825 20.52118671 0.95339003 25 4.3125 C24.835 5.09625 24.67 5.88 24.5 6.6875 C23.9376293 9.19458039 23.9376293 9.19458039 24 11.3125 C24.44988281 11.7559375 24.89976563 12.199375 25.36328125 12.65625 C29.77666881 17.12230329 31.27067714 23.83921069 31.5 29.9375 C31.2565842 36.54717532 28.57968931 40.94296604 25 46.3125 C25.9178125 46.34988281 26.835625 46.38726562 27.78125 46.42578125 C43.98113208 47.29363208 43.98113208 47.29363208 49 52.3125 C49.74621237 59.66580104 46.29533673 64.72952318 42 70.3125 C41.41347656 71.11300781 40.82695313 71.91351563 40.22265625 72.73828125 C34.22741402 80.75380204 34.22741402 80.75380204 30 83.3125 C27.1875 83.5625 27.1875 83.5625 25 83.3125 C24.60740448 78.86308414 25.6501558 76.08903532 28 72.3125 C28.6290625 72.06113281 29.258125 71.80976562 29.90625 71.55078125 C33.09635446 69.66409634 33.80588631 67.03521809 35.25 63.6875 C36.61125 60.531875 36.61125 60.531875 38 57.3125 C32.39 57.3125 26.78 57.3125 21 57.3125 C21 58.3025 21 59.2925 21 60.3125 C17.03961369 58.53715441 14.77260439 56.85770877 12.8125 52.9375 C11.97736468 50.23937049 11.83969207 48.11788885 12 45.3125 C11.34 45.3125 10.68 45.3125 10 45.3125 C9.690625 46.26125 9.38125 47.21 9.0625 48.1875 C8 51.3125 8 51.3125 7 53.3125 C2.17965738 52.89932778 0.09007389 50.93230085 -3 47.3125 C-3 46.6525 -3 45.9925 -3 45.3125 C-3.66 45.3125 -4.32 45.3125 -5 45.3125 C-4.67 45.9725 -4.34 46.6325 -4 47.3125 C-3.8518456 49.26699844 -3.77875151 51.2276053 -3.75 53.1875 C-3.72421875 54.23679688 -3.6984375 55.28609375 -3.671875 56.3671875 C-4.04258396 59.69474176 -5.03714266 60.71318483 -7 63.3125 C-6.93385156 65.57094115 -6.93385156 65.57094115 -6.1875 67.8125 C-5.30150295 70.9483926 -5 72.94814764 -5 76.3125 C-9.77493314 76.02600401 -12.9945069 75.27690628 -16.578125 71.97265625 C-20.36349406 67.5529259 -23 63.16655792 -23 57.3125 C-23.99 57.6425 -24.98 57.9725 -26 58.3125 C-35.12306356 58.97599553 -43.65806656 56.37537636 -52.0625 52.99609375 C-54.25031365 52.22418369 -56.41303897 51.76514767 -58.6875 51.3125 C-62.29960786 50.57139511 -64.9428801 49.44321993 -68 47.3125 C-68.66 46.9825 -69.32 46.6525 -70 46.3125 C-70 45.3225 -70 44.3325 -70 43.3125 C-61.00420365 43.00755775 -52.4802315 44.43607448 -43.66796875 46.1484375 C-42.92482422 46.28918701 -42.18167969 46.42993652 -41.41601562 46.57495117 C-39.97115769 46.85053155 -38.52823266 47.13652967 -37.08789062 47.43481445 C-32.10767836 48.38317149 -28.00415356 48.14745955 -23 47.3125 C-23.31710938 46.78914063 -23.63421875 46.26578125 -23.9609375 45.7265625 C-26.19922717 40.5263256 -25.90639256 34.81048643 -25 29.3125 C-23.21947765 26.42319782 -21.22307112 24.16713222 -18.90625 21.6953125 C-16.31516033 18.45645042 -15.81340301 15.59006358 -15.3515625 11.5390625 C-14.97212058 9.13593034 -14.18524674 7.42281737 -13 5.3125 C-12.34 5.3125 -11.68 5.3125 -11 5.3125 C-11 4.6525 -11 3.9925 -11 3.3125 C-7.30475797 0.5206903 -4.58067119 -0.07595501 0 0 Z " fill="#FFAC32" transform="translate(70,-0.3125)"/>
<path d="M0 0 C2.34873815 4.46260249 4.15287262 8.97627738 5.83984375 13.73046875 C7.21285829 16.41639954 8.38314118 17.5182215 11 19 C13.21943233 19.43307007 13.21943233 19.43307007 15.5 19.3125 C16.2528125 19.30863281 17.005625 19.30476563 17.78125 19.30078125 C20.34828074 18.95278589 21.8490857 18.45593586 24 17 C25.66342802 14.67911546 25.66342802 14.67911546 27.0625 12 C28.91077403 8.62702245 29.73925 7.17383334 33 5 C36.37401724 4.45286207 37.84731977 4.91702161 40.875 6.5625 C43.33553633 8.48171834 45.3969265 10.34525338 47.5625 12.5625 C51.54015045 16.60962906 54.12062922 18.79118102 59.9375 19.4375 C64.30150233 19.29672573 66.64134407 17.68692474 70 15 C71.26070809 17.9798555 70.99119908 19.02316031 69.8125 22.125 C67.30169972 26.10764873 67.30169972 26.10764873 64 27 C59.40246813 27.44492244 57.05675027 27.5391583 52.9375 25.4375 C49.9314909 22.94315203 47.20495305 20.31692134 44.515625 17.48828125 C43.05074174 15.89721278 43.05074174 15.89721278 41 15 C40.98018066 15.86802246 40.96036133 16.73604492 40.93994141 17.63037109 C40.86190128 20.84726267 40.77521119 24.06377045 40.68261719 27.28027344 C40.64430673 28.67308572 40.60945741 30.06599765 40.578125 31.45898438 C40.53252093 33.45986308 40.47348377 35.46042146 40.4140625 37.4609375 C40.3826416 38.66540527 40.3512207 39.86987305 40.31884766 41.11083984 C40 44 40 44 38 46 C34.875 46.125 34.875 46.125 32 46 C30.2302229 42.18793688 29.76172058 39.23224378 29.8046875 35.04296875 C29.81113281 33.93115234 29.81757812 32.81933594 29.82421875 31.67382812 C29.84097656 30.52333984 29.85773438 29.37285156 29.875 28.1875 C29.88402344 27.01767578 29.89304688 25.84785156 29.90234375 24.64257812 C29.92586268 21.76150947 29.95873148 18.88086011 30 16 C29.52820313 16.81404297 29.52820313 16.81404297 29.046875 17.64453125 C24.54960543 25.16255719 24.54960543 25.16255719 21 27 C16.16917681 27.95659865 12.14650744 27.57325372 7.75 25.375 C4.28260858 22.00611401 2.714086 17.24843202 1.00292969 12.81396484 C-0.17304065 9.22845078 -0.17304065 9.22845078 -3 7 C-4.68490405 7.75985869 -6.36908839 8.52142741 -8.046875 9.296875 C-11.03657458 10.37316685 -13.86634055 10.1918567 -17 10 C-18.125 5.25 -18.125 5.25 -17 3 C-14.78515625 2.40234375 -14.78515625 2.40234375 -12.0625 1.9375 C-0.81126015 -0.02134895 -0.81126015 -0.02134895 0 0 Z " fill="#A5071F" transform="translate(45,134)"/>
<path d="M0 0 C8.85556631 -0.30018869 17.35369457 0.91017788 25.98046875 2.90625 C35.58448583 5.02996629 43.26468265 4.84145803 52.87890625 2.76171875 C56.98193036 1.89570961 60.81433051 1.87287618 65 2 C66.34553453 4.69106907 66.20594114 6.87165422 66.25 9.875 C66.27578125 10.92429687 66.3015625 11.97359375 66.328125 13.0546875 C65.95741604 16.38224176 64.96285734 17.40068483 63 20 C63.06614844 22.25844115 63.06614844 22.25844115 63.8125 24.5 C64.69849705 27.6358926 65 29.63564764 65 33 C60.22506686 32.71350401 57.0054931 31.96440628 53.421875 28.66015625 C49.63650594 24.2404259 47 19.85405792 47 14 C46.01 14.33 45.02 14.66 44 15 C34.87693644 15.66349553 26.34193344 13.06287636 17.9375 9.68359375 C15.74968635 8.91168369 13.58696103 8.45264767 11.3125 8 C7.70039214 7.25889511 5.0571199 6.13071993 2 4 C1.34 3.67 0.68 3.34 0 3 C0 2.01 0 1.02 0 0 Z " fill="#FEDA5B" transform="translate(0,43)"/>
<path d="M0 0 C7.63610431 -0.36426646 14.89898833 0.0699312 22.4375 1.25 C23.57227783 1.41399292 23.57227783 1.41399292 24.72998047 1.58129883 C29.74345093 2.42724559 32.96157956 3.90238432 37 7 C36.75392379 14.75140065 34.67846953 18.91903625 30 25 C29.41347656 25.80050781 28.82695313 26.60101563 28.22265625 27.42578125 C22.22741402 35.44130204 22.22741402 35.44130204 18 38 C15.1875 38.25 15.1875 38.25 13 38 C12.60740448 33.55058414 13.6501558 30.77653532 16 27 C16.6290625 26.74863281 17.258125 26.49726562 17.90625 26.23828125 C21.09635446 24.35159634 21.80588631 21.72271809 23.25 18.375 C24.1575 16.27125 25.065 14.1675 26 12 C20.39 12 14.78 12 9 12 C9 12.99 9 13.98 9 15 C5.03961369 13.22465441 2.77260439 11.54520877 0.8125 7.625 C-0.02593486 4.91621045 -0.06115432 2.8130987 0 0 Z " fill="#FEDB5C" transform="translate(82,45)"/>
<path d="M0 0 C2.25 0.875 2.25 0.875 4 2 C4.68860423 13.8210392 4.68860423 13.8210392 2.1875 17.625 C0 20 0 20 -3 22 C-3.73343428 25.06556598 -3.73343428 25.06556598 -4 28 C-3.34 28 -2.68 28 -2 28 C-3.875 33.75 -3.875 33.75 -5 36 C-8.36275219 35.7117641 -10.07297707 34.94923335 -12.875 33 C-15.23200565 29.67246261 -15.24338808 29.04121737 -14.8125 25.1875 C-14.56800808 23.78681264 -14.30556226 22.38864434 -14 21 C-14.62261719 20.70480469 -15.24523437 20.40960938 -15.88671875 20.10546875 C-18.55227052 18.71110433 -19.62018306 17.68701193 -21 15 C-21 10.86818747 -20.38457142 8.58967618 -18.125 5.125 C-14.2024838 2.45768899 -11.28336194 2.36114269 -6.62109375 2.23828125 C-3.98924077 2.17474968 -3.98924077 2.17474968 -1.91015625 0.85546875 C-1.27980469 0.57316406 -0.64945313 0.29085938 0 0 Z " fill="#FEDA5B" transform="translate(82,17)"/>
<path d="M0 0 C1.65 0 3.3 0 5 0 C5.28934017 4.91878297 5.27699736 8.15800309 2 12 C-0.6875 12.8125 -0.6875 12.8125 -3 13 C-2.34 13.433125 -1.68 13.86625 -1 14.3125 C-0.34 14.869375 0.32 15.42625 1 16 C1 16.99 1 17.98 1 19 C-3.50413893 18.70380946 -7.23743565 18.35303905 -11.375 16.4375 C-19.6152828 13.16980165 -29.37040878 15.18780318 -38 16 C-37.34 12.04 -36.68 8.08 -36 4 C-35.08186523 4.00523682 -34.16373047 4.01047363 -33.21777344 4.01586914 C-29.80354177 4.03293598 -26.38935559 4.04546232 -22.97509766 4.05493164 C-21.49885339 4.05995288 -20.02261408 4.06677116 -18.54638672 4.07543945 C-16.42153702 4.08760189 -14.29675322 4.09325046 -12.171875 4.09765625 C-10.8940918 4.10289307 -9.61630859 4.10812988 -8.29980469 4.11352539 C-4.54208256 4.02899243 -4.54208256 4.02899243 -1 3 C-0.67 2.01 -0.34 1.02 0 0 Z " fill="#DD3244" transform="translate(175,78)"/>
<path d="M0 0 C3.0625 0.1875 3.0625 0.1875 5.0625 2.1875 C5.32128906 5.22851562 5.32128906 5.22851562 5.328125 9.09375 C5.33003845 9.77425415 5.3319519 10.4547583 5.33392334 11.15588379 C5.33528463 12.59497446 5.33159205 14.03407744 5.32324219 15.47314453 C5.31254128 17.67899087 5.32313872 19.88402281 5.3359375 22.08984375 C5.33461589 23.48698097 5.33205348 24.88411768 5.328125 26.28125 C5.32586914 27.55677734 5.32361328 28.83230469 5.32128906 30.14648438 C5.0625 33.1875 5.0625 33.1875 3.0625 35.1875 C-0.0625 35.3125 -0.0625 35.3125 -2.9375 35.1875 C-4.91576609 31.07920247 -5.12553088 27.92224803 -4.94921875 23.390625 C-4.90216797 22.10285156 -4.85511719 20.81507813 -4.80664062 19.48828125 C-4.77675049 18.82393066 -4.74686035 18.15958008 -4.71606445 17.47509766 C-4.6246784 15.4303041 -4.55029419 13.3854105 -4.47851562 11.33984375 C-4.03857445 0.25778135 -4.03857445 0.25778135 0 0 Z " fill="#E24B48" transform="translate(79.9375,144.8125)"/>
<path d="M0 0 C15.74487472 -0.18451025 15.74487472 -0.18451025 23 1 C23.2401468 3.88176164 23.24197622 5.56984206 21.80737305 8.12011719 C19.48475944 10.53591143 18.20110089 10.59876757 14.89453125 10.828125 C13.91162109 10.90546875 12.92871094 10.9828125 11.91601562 11.0625 C10.89185547 11.124375 9.86769531 11.18625 8.8125 11.25 C7.77673828 11.32734375 6.74097656 11.4046875 5.67382812 11.484375 C3.11705809 11.67289261 0.55862665 11.83862604 -2 12 C-1.34 8.04 -0.68 4.08 0 0 Z " fill="#FEDA5C" transform="translate(139,82)"/>
<path d="M0 0 C3.63 0 7.26 0 11 0 C17 13 17 13 17 20 C12.22767149 19.71366029 9.00020015 18.97053599 5.42578125 15.65625 C2.6903256 12.47862481 0.36765894 8.97369562 -1 5 C-0.67 3.35 -0.34 1.7 0 0 Z " fill="#FEAB33" transform="translate(48,56)"/>
<path d="M0 0 C0.99 0.66 1.98 1.32 3 2 C5.62531524 2.16713569 5.62531524 2.16713569 8 2 C8.33 1.34 8.66 0.68 9 0 C9.99 0 10.98 0 12 0 C11.5020163 3.73487777 11.12508244 5.81237635 9 9 C7.0546875 9.29296875 7.0546875 9.29296875 4.875 9.1875 C3.59625 9.125625 2.3175 9.06375 1 9 C1 8.34 1 7.68 1 7 C-5.40141012 6.48788719 -8.98010898 6.88111506 -14 11 C-14.66 10.67 -15.32 10.34 -16 10 C-15.58565093 5.16592748 -13.62206046 3.10462326 -10 0 C-6.25105057 -1.24964981 -3.84864723 -0.75598428 0 0 Z " fill="#A70720" transform="translate(125,124)"/>
<path d="M0 0 C3.0625 0.1875 3.0625 0.1875 5.0625 2.1875 C5.2578125 4.5703125 5.2578125 4.5703125 5.1875 7.3125 C5.16945313 8.22257813 5.15140625 9.13265625 5.1328125 10.0703125 C5.10960938 10.76898438 5.08640625 11.46765625 5.0625 12.1875 C4.4025 12.1875 3.7425 12.1875 3.0625 12.1875 C3.0625 13.1775 3.0625 14.1675 3.0625 15.1875 C1.0825 15.1875 -0.8975 15.1875 -2.9375 15.1875 C-3.97626383 12.07120851 -4.07111625 9.8280571 -4.0625 6.5625 C-4.06507812 5.58023438 -4.06765625 4.59796875 -4.0703125 3.5859375 C-3.87429963 0.0461756 -3.59563284 0.22950848 0 0 Z " fill="#FCD55B" transform="translate(79.9375,144.8125)"/>
<path d="M0 0 C0.33 0 0.66 0 1 0 C1.11828016 9.49620746 1.11828016 9.49620746 -1.484375 12.99609375 C-4.43872971 15.52749597 -7.49697602 17.32195099 -11 19 C-12 18 -12 18 -12.375 15.6875 C-12 13 -12 13 -9.8125 10.9375 C-8.4203125 9.9784375 -8.4203125 9.9784375 -7 9 C-3.24168799 6.29051925 -1.36754097 4.47558864 0 0 Z " fill="#A60820" transform="translate(137,85)"/>
<path d="M0 0 C0.5259375 0.7734375 0.5259375 0.7734375 1.0625 1.5625 C3.09468727 3.40146383 3.09468727 3.40146383 6.6875 2.6875 C7.780625 2.460625 8.87375 2.23375 10 2 C10.125 5.375 10.125 5.375 10 9 C8 11 8 11 4.875 11.125 C3.92625 11.08375 2.9775 11.0425 2 11 C0.19769832 7.17010894 -0.19622241 4.21878192 0 0 Z " fill="#DD2F44" transform="translate(75,169)"/>
<path d="M0 0 C1.98 0 3.96 0 6 0 C6 2.64 6 5.28 6 8 C4.34385343 8.38218767 2.67542976 8.71395102 1 9 C0 8 0 8 -0.09765625 6.15234375 C-0.06510417 4.1015625 -0.03255208 2.05078125 0 0 Z " fill="#FDD35B" transform="translate(77,164)"/>
<path d="M0 0 C-0.5625 1.9375 -0.5625 1.9375 -2 4 C-5.625 4.75 -5.625 4.75 -9 5 C-9 4.01 -9 3.02 -9 2 C-3.375 0 -3.375 0 0 0 Z " fill="#FCCE57" transform="translate(175,81)"/>
<path d="M0 0 C0.66 0 1.32 0 2 0 C2 1.65 2 3.3 2 5 C0.35 5.66 -1.3 6.32 -3 7 C-2.01 4.69 -1.02 2.38 0 0 Z " fill="#E55849" transform="translate(80,45)"/>
</svg>
